<svg width="300" height="300" viewBox="0 0 300 300" fill="none" xmlns="http://www.w3.org/2000/svg">
<path d="M130.431 0.189673C121.795 0.395011 115.46 0.698636 103.845 1.41482C98.4729 1.73534 92.609 2.20737 88.4795 2.62055C87.443 2.73324 85.2746 2.94108 83.6722 3.09258C76.9413 3.75304 66.9479 5.01449 62.7446 5.7313C61.8569 5.8828 60.5562 6.09064 59.8226 6.20333C59.1059 6.29848 57.8227 6.52323 56.9933 6.67535C56.1645 6.82685 54.7686 7.09104 53.8835 7.24004C50.7706 7.76841 45.4744 8.84393 42.4767 9.56073C41.6454 9.76857 40.1563 10.1254 39.176 10.3533C38.1951 10.578 37.3107 10.7859 37.198 10.8053C31.6714 12.1237 26.1849 14.7843 21.9622 18.2344C17.8515 21.5724 14.1765 26.965 12.3281 32.3201C12.0276 33.1496 11.724 33.9979 11.6314 34.2057C11.3109 34.9225 9.91502 40.9549 8.91474 45.8974C8.76576 46.7263 8.50161 47.9515 8.35013 48.6313C8.19802 49.3087 7.99333 50.4969 7.86063 51.2701C7.74608 52.0426 7.59647 52.9866 7.50133 53.3435C7.21777 54.4202 6.06851 61.773 5.33239 67.1093C4.61629 72.2765 4.14432 76.0302 3.73119 79.8377C3.52337 81.7033 3.31555 83.5326 3.27862 83.8919C3.22229 84.2487 3.0514 86.0786 2.88239 87.9467C2.73091 89.8123 2.50619 92.0942 2.39102 93.0382C1.99478 96.5058 1.01391 111.611 0.525663 122.266C0.148837 130.164 -0.0959129 147.08 0.0361641 156.301C0.168241 167.803 0.449296 178.081 0.71345 181.663C0.809221 183.113 0.997008 186.17 1.10968 188.452C1.22235 190.733 1.37383 193.655 1.46898 194.956C1.90214 201.481 2.24204 205.76 2.41042 207.117C2.50619 207.949 2.73091 210.155 2.88239 212.001C3.03387 213.85 3.25922 216.056 3.35436 216.904C3.46704 217.753 3.67485 219.582 3.82383 220.978C4.2958 225.446 4.6551 228.369 4.95619 230.312C5.10767 231.349 5.37182 233.122 5.5208 234.271C6.06851 238.419 6.70887 242.454 7.40618 246.152C7.55767 246.981 7.80241 248.377 7.9733 249.262C8.29379 251.147 9.02929 254.901 9.5576 257.276C11.3666 265.593 12.1591 268.08 14.2892 272.173C14.8732 273.303 15.6269 274.624 15.9668 275.096C16.2866 275.568 16.7586 276.245 17.0034 276.604C18.0788 278.206 21.1528 281.336 22.8498 282.545C23.1309 282.75 23.6786 283.146 24.0354 283.43C24.4147 283.73 24.7715 283.958 24.8666 283.958C24.9424 283.958 25.1308 284.09 25.2798 284.242C26.0159 284.958 31.2019 287.428 33.4247 288.088C33.8404 288.22 34.3493 288.389 34.5571 288.484C35.0485 288.71 37.8183 289.407 41.1565 290.162C42.6088 290.502 44.0979 290.859 44.4553 290.954C45.3229 291.18 50.79 292.273 54.9201 293.028C57.2943 293.461 61.9158 294.197 64.8177 294.613C65.9113 294.762 67.3072 294.97 67.9287 295.082C70.2097 295.479 79.6379 296.574 85.5576 297.139C87.6877 297.347 90.3086 297.591 91.4015 297.703C93.1742 297.892 94.9838 298.043 103.656 298.665C104.957 298.76 107.919 298.929 110.256 299.044C112.594 299.156 115.856 299.325 117.516 299.421C130.939 300.193 169.326 300.193 182.562 299.421C184.222 299.308 187.483 299.156 189.821 299.044C193.836 298.856 195.308 298.76 201.604 298.288C209.673 297.667 221.535 296.515 225.55 295.951C226.699 295.781 228.68 295.517 229.98 295.346C234.788 294.725 241.387 293.725 245.157 293.028C249.287 292.273 254.754 291.18 255.623 290.954C255.979 290.859 257.469 290.502 258.921 290.162C262.183 289.426 265.012 288.71 265.52 288.484C266.147 288.259 266.775 288.038 267.406 287.824C268.951 287.316 274.081 284.882 274.513 284.467C274.645 284.335 275.022 284.053 275.343 283.863C276.814 282.94 277.492 282.413 278.832 281.204C280.34 279.827 282.434 277.566 282.942 276.793C283.111 276.529 283.563 275.888 283.94 275.379C284.336 274.851 284.656 274.379 284.656 274.304C284.656 274.227 284.959 273.7 285.316 273.134C285.676 272.57 286.109 271.738 286.28 271.286C286.468 270.853 286.656 270.381 286.732 270.288C287.089 269.816 288.41 266.063 288.974 263.932C289.862 260.633 291.519 252.845 292.123 249.167C292.275 248.225 292.444 247.34 292.5 247.188C292.671 246.773 293.708 240.305 294.649 233.707C294.857 232.254 295.065 230.802 295.121 230.501C295.273 229.633 295.951 223.844 296.253 220.79C296.402 219.281 296.61 217.545 296.723 216.924C296.838 216.3 297.043 214.265 297.195 212.397C297.346 210.532 297.554 208.23 297.647 207.306C297.76 206.364 297.931 204.215 298.043 202.498C298.156 200.781 298.327 198.671 298.42 197.784C298.534 196.898 298.74 193.636 298.892 190.525C299.063 187.412 299.251 183.585 299.364 182.04C300.212 168.33 300.212 132.353 299.364 118.212C299.268 116.607 299.1 113.46 298.987 111.234C298.872 109.009 298.703 106.067 298.608 104.727C298.496 103.37 298.252 100.032 298.043 97.2808C297.835 94.5275 297.627 91.9427 297.571 91.5295C297.515 91.1132 297.346 89.2845 297.195 87.4747C297.043 85.6655 296.874 83.9677 296.818 83.7041C296.762 83.4399 296.554 81.7033 296.346 79.8377C295.858 75.3303 295.253 70.354 295.121 69.7699C295.065 69.5057 294.857 67.997 294.649 66.4488C293.725 59.3984 292.011 49.5729 290.539 42.88C290.331 41.9359 289.994 40.4097 289.786 39.4856C289.258 37.0717 288.634 34.6389 288.429 34.2057C288.334 33.9979 288.165 33.4895 288.033 33.0738C287.617 31.6797 285.524 27.0214 284.996 26.2852C284.92 26.1725 284.319 25.2873 283.676 24.3069C282.338 22.2892 278.908 18.7064 276.851 17.1977C272.78 14.1996 268.254 12.1625 262.41 10.7295C261.403 10.4833 260.398 10.2315 259.393 9.97391C258.696 9.76857 257.3 9.46558 254.302 8.84393C253.453 8.66579 252.604 8.48319 251.757 8.29615C248.118 7.41094 236.277 5.48652 228.567 4.50616C227.019 4.31772 225.493 4.10988 225.173 4.03663C224.606 3.92144 221.872 3.64036 216.312 3.09258C214.764 2.94108 212.634 2.71571 211.598 2.62055C210.561 2.50787 208.693 2.33884 207.451 2.22427C206.206 2.13162 204.17 1.96009 202.925 1.86744C198.702 1.50809 186.975 0.830729 180.488 0.54651C167.949 -0.000640713 144.797 -0.169669 130.431 0.189673Z" fill="#6E31D1"/>
<rect x="160" y="75" width="150" height="20" rx="2" transform="rotate(90 160 75)" fill="white"/>
<rect x="125" y="117.5" width="67.5" height="20" rx="2" transform="rotate(90 125 117.5)" fill="white"/>
<rect x="195" y="90" width="95" height="20" rx="2" transform="rotate(90 195 90)" fill="white"/>
<path d="M258.085 144.235C260.638 145.686 260.638 149.314 258.085 150.765L220.745 171.989C218.191 173.44 215 171.626 215 168.724L215 126.276C215 123.374 218.191 121.56 220.745 123.011L258.085 144.235Z" fill="white"/>
<path d="M41.9149 150.765C39.3617 149.314 39.3617 145.686 41.9149 144.235L79.2553 123.011C81.8085 121.56 85 123.374 85 126.276L85 168.724C85 171.626 81.8085 173.44 79.2553 171.989L41.9149 150.765Z" fill="white"/>
</svg>
