<svg width="120" height="120" viewBox="0 0 120 120" fill="none" xmlns="http://www.w3.org/2000/svg">
<path d="M52.1725 0.0758692C48.7179 0.158004 46.1838 0.279454 41.538 0.565926C39.3892 0.694137 37.0436 0.882948 35.3918 1.04822C34.9772 1.09329 34.1099 1.17643 33.4689 1.23703C30.7765 1.50122 26.7791 2.0058 25.0978 2.29252C24.7428 2.35312 24.2225 2.43626 23.929 2.48133C23.6423 2.51939 23.1291 2.60929 22.7973 2.67014C22.4658 2.73074 21.9074 2.83642 21.5534 2.89601C20.3082 3.10736 18.1898 3.53757 16.9907 3.82429C16.6582 3.90743 16.0625 4.05016 15.6704 4.14132C15.2781 4.23121 14.9243 4.31435 14.8792 4.32211C12.6686 4.84948 10.474 5.91373 8.78488 7.29376C7.14061 8.62896 5.67062 10.786 4.93123 12.928C4.81105 13.2598 4.68961 13.5991 4.65256 13.6823C4.52436 13.969 3.96601 16.382 3.5659 18.359C3.50631 18.6905 3.40064 19.1806 3.34005 19.4525C3.27921 19.7235 3.19733 20.1988 3.14425 20.508C3.09843 20.817 3.03859 21.1947 3.00053 21.3374C2.88711 21.7681 2.42741 24.7092 2.13296 26.8437C1.84652 28.9106 1.65773 30.4121 1.49248 31.9351C1.40935 32.6813 1.32622 33.413 1.31145 33.5568C1.28891 33.6995 1.22056 34.4315 1.15296 35.1787C1.09236 35.9249 1.00248 36.8377 0.956406 37.2153C0.797914 38.6023 0.405564 44.6445 0.210265 48.9063C0.0595347 52.0657 -0.0383651 58.8319 0.0144656 62.5205C0.0672964 67.121 0.179718 71.2323 0.28538 72.6652C0.323688 73.2454 0.398803 74.4681 0.443872 75.3806C0.488941 76.2932 0.549534 77.4621 0.587592 77.9824C0.760857 80.5922 0.896815 82.3041 0.964168 82.8469C1.00248 83.1795 1.09236 84.0619 1.15296 84.8004C1.21355 85.5399 1.30369 86.4223 1.34175 86.7616C1.38681 87.1012 1.46994 87.8327 1.52953 88.3913C1.71832 90.1785 1.86204 91.3474 1.98247 92.125C2.04307 92.5397 2.14873 93.2488 2.20832 93.7086C2.42741 95.3676 2.68355 96.9815 2.96247 98.4607C3.02307 98.7922 3.12097 99.3509 3.18932 99.705C3.31752 100.459 3.61172 101.96 3.82304 102.91C4.54665 106.237 4.86363 107.232 5.71568 108.869C5.94929 109.321 6.25075 109.849 6.38671 110.038C6.51466 110.227 6.70344 110.498 6.80134 110.642C7.2315 111.283 8.46113 112.535 9.13992 113.018C9.25234 113.1 9.47143 113.258 9.61415 113.372C9.76588 113.492 9.9086 113.583 9.94665 113.583C9.97695 113.583 10.0523 113.636 10.1119 113.697C10.4064 113.983 12.4808 114.971 13.3699 115.235C13.5361 115.288 13.7397 115.355 13.8228 115.394C14.0194 115.484 15.1273 115.763 16.4626 116.065C17.0435 116.201 17.6392 116.344 17.7821 116.382C18.1292 116.472 20.316 116.909 21.968 117.211C22.9177 117.384 24.7663 117.679 25.9271 117.845C26.3645 117.905 26.9229 117.988 27.1715 118.033C28.0839 118.191 31.8552 118.63 34.223 118.855C35.0751 118.939 36.1234 119.037 36.5606 119.081C37.2697 119.157 37.9935 119.217 41.4626 119.466C41.9829 119.504 43.1675 119.572 44.1024 119.618C45.0376 119.663 46.3423 119.73 47.0063 119.768C52.3758 120.077 67.7305 120.077 73.0246 119.768C73.6886 119.723 74.9934 119.663 75.9285 119.618C77.5345 119.542 78.1232 119.504 80.6418 119.315C83.8692 119.067 88.6139 118.606 90.2199 118.38C90.6796 118.313 91.4718 118.207 91.9921 118.139C93.9151 117.89 96.5548 117.49 98.0629 117.211C99.7149 116.909 101.902 116.472 102.249 116.382C102.392 116.344 102.987 116.201 103.569 116.065C104.873 115.77 106.005 115.484 106.208 115.394C106.459 115.303 106.71 115.215 106.962 115.13C107.58 114.926 109.632 113.953 109.805 113.787C109.858 113.734 110.009 113.621 110.137 113.545C110.726 113.176 110.997 112.965 111.533 112.482C112.136 111.931 112.973 111.026 113.177 110.717C113.244 110.611 113.425 110.355 113.576 110.152C113.734 109.941 113.863 109.752 113.863 109.721C113.863 109.691 113.984 109.48 114.126 109.254C114.27 109.028 114.443 108.695 114.512 108.514C114.587 108.341 114.662 108.152 114.693 108.115C114.836 107.926 115.364 106.425 115.59 105.573C115.945 104.253 116.608 101.138 116.849 99.6666C116.91 99.29 116.978 98.9359 117 98.8753C117.068 98.7091 117.483 96.1218 117.86 93.4827C117.943 92.9018 118.026 92.3208 118.048 92.2004C118.109 91.853 118.38 89.5377 118.501 88.316C118.561 87.7125 118.644 87.0181 118.689 86.7694C118.735 86.52 118.817 85.7061 118.878 84.9589C118.939 84.2127 119.022 83.2922 119.059 82.9223C119.104 82.5457 119.172 81.686 119.217 80.9992C119.262 80.3125 119.331 79.4684 119.368 79.1136C119.414 78.7592 119.496 77.4543 119.557 76.21C119.625 74.965 119.7 73.4339 119.746 72.8159C120.085 67.3321 120.085 52.9412 119.746 47.2846C119.707 46.6428 119.64 45.384 119.595 44.4938C119.549 43.6036 119.481 42.4269 119.443 41.891C119.398 41.3481 119.301 40.0129 119.217 38.9123C119.134 37.811 119.051 36.7771 119.028 36.6118C119.006 36.4453 118.939 35.7138 118.878 34.9899C118.817 34.2662 118.75 33.5871 118.727 33.4816C118.705 33.376 118.622 32.6813 118.538 31.9351C118.343 30.1321 118.101 28.1416 118.048 27.908C118.026 27.8023 117.943 27.1988 117.86 26.5795C117.49 23.7594 116.805 19.8292 116.216 17.152C116.133 16.7744 115.998 16.1639 115.914 15.7943C115.703 14.8287 115.454 13.8556 115.372 13.6823C115.334 13.5991 115.266 13.3958 115.213 13.2295C115.047 12.6719 114.21 10.8085 113.999 10.5141C113.968 10.469 113.728 10.1149 113.47 9.72276C112.935 8.91568 111.563 7.48257 110.741 6.87907C109.112 5.67985 107.302 4.86501 104.964 4.29181C104.561 4.19333 104.159 4.09258 103.757 3.98956C103.478 3.90743 102.92 3.78623 101.721 3.53757C101.381 3.46632 101.042 3.39328 100.703 3.31846C99.2472 2.96438 94.5107 2.19461 91.4267 1.80246C90.8075 1.72709 90.1974 1.64395 90.0692 1.61465C89.8423 1.56858 88.7489 1.45614 86.5247 1.23703C85.9056 1.17643 85.0537 1.08628 84.6391 1.04822C84.2245 1.00315 83.4773 0.935535 82.9803 0.88971C82.4823 0.852649 81.6678 0.784035 81.1701 0.746974C79.4807 0.603238 74.7901 0.332291 72.1953 0.218604C67.1797 -0.000256285 57.9188 -0.0678676 52.1725 0.0758692Z" fill="#212026"/>
<path d="M92 35.4438V76.1266C92 83.2551 86.2047 89.0515 79.0776 89.0515C75.6533 89.042 72.372 87.6772 69.9506 85.2554C67.5292 82.8336 66.1647 79.5516 66.1552 76.1266C66.1552 69.0341 71.9865 63.2377 79.0776 63.2377C82.1012 63.2377 84.8009 64.2818 86.9966 66.0099V44.5884L53.8448 54.0211V83.0751C53.8353 86.5001 52.4708 89.7821 50.0494 92.2039C47.628 94.6257 44.3467 95.9905 40.9224 96C33.7953 96 28 90.2036 28 83.0751C28 75.9826 33.7953 70.1862 40.9224 70.1862C43.91 70.1862 46.6097 71.2303 48.8054 72.9224V41.0962C48.8054 35.8038 52.009 31.6995 57.0844 30.3314L77.8898 24.643C82.1012 23.4909 85.6648 23.887 88.1845 25.8311C90.7402 27.7392 92 30.9795 92 35.4438Z" fill="#0E0C13"/>
</svg>
